<svg width="48" height="26" viewBox="0 0 48 26" fill="none" xmlns="http://www.w3.org/2000/svg">
<path fill-rule="evenodd" clip-rule="evenodd" d="M36.158 21.124H37.2549C37.2582 21.1062 37.2616 21.0884 37.2652 21.0706C37.4235 20.2728 37.8149 19.5398 38.3898 18.9644C38.9648 18.389 39.6975 17.9971 40.4952 17.8382C41.2929 17.6793 42.1199 17.7606 42.8714 18.0717C43.623 18.3828 44.2654 18.9099 44.7173 19.5862C45.0288 20.0523 45.2403 20.5749 45.3416 21.121H46.4992V17.144C46.4987 16.6063 46.3611 16.0777 46.0992 15.608L42.0392 8.32902C42.0045 8.2669 41.9539 8.21516 41.8926 8.17912C41.8312 8.14309 41.7614 8.12407 41.6902 8.12402H36.158V21.124ZM34.658 7.33977V1.5H9.83301V3.83899H14.2537C14.4526 3.83899 14.6433 3.91801 14.784 4.05866C14.9246 4.19931 15.0037 4.39008 15.0037 4.58899C15.0037 4.7879 14.9246 4.97867 14.784 5.11932C14.6433 5.25997 14.4526 5.33899 14.2537 5.33899H9.08679C9.08553 5.339 9.08427 5.339 9.08301 5.339C9.08175 5.339 9.08048 5.339 9.07922 5.33899H5.09766C4.89874 5.33899 4.70798 5.25997 4.56733 5.11932C4.42667 4.97867 4.34766 4.7879 4.34766 4.58899C4.34766 4.39008 4.42667 4.19931 4.56733 4.05866C4.70798 3.91801 4.89874 3.83899 5.09766 3.83899H8.33301V1.362C8.33354 1.00076 8.47734 0.65449 8.73287 0.399152C8.98839 0.143813 9.33477 0.000264448 9.69601 0H34.796C35.1571 0.00052903 35.5032 0.144195 35.7585 0.399505C36.0138 0.654815 36.1575 1.00094 36.158 1.362V6.62402H41.6902C42.0286 6.62386 42.3608 6.71405 42.6527 6.88528C42.9445 7.05651 43.1853 7.30257 43.3502 7.59802L47.4092 14.878C47.7951 15.571 47.9978 16.3509 47.9982 17.144V21.334C47.9977 21.6752 47.8619 22.0022 47.6207 22.2435C47.3794 22.4847 47.0524 22.6205 46.7112 22.621H45.3412C45.1904 23.432 44.7979 24.1852 44.2066 24.777C43.4362 25.5479 42.3914 25.9817 41.3015 25.983C40.4881 25.9836 39.6928 25.7429 39.0162 25.2914C38.3396 24.84 37.8121 24.198 37.5004 23.4467C37.3899 23.1804 37.3083 22.9046 37.2561 22.624H35.4072C35.3847 22.624 35.3622 22.623 35.34 22.621H23.6711C23.5202 23.4318 23.1278 24.1848 22.5368 24.7764C21.7666 25.5472 20.7222 25.9812 19.6326 25.983C18.8192 25.9838 18.0238 25.7433 17.347 25.292C16.6703 24.8406 16.1426 24.1987 15.8308 23.4474C15.7197 23.1799 15.6379 22.9029 15.5856 22.621H9.08301C8.8841 22.621 8.69333 22.5419 8.55268 22.4013C8.41203 22.2606 8.33301 22.0699 8.33301 21.871V16.853H2.52832C2.32941 16.853 2.13864 16.7739 1.99799 16.6333C1.85734 16.4926 1.77832 16.3019 1.77832 16.103C1.77832 15.9041 1.85734 15.7133 1.99799 15.5726C2.13864 15.432 2.32941 15.353 2.52832 15.353H9.08301H12.0473C12.2462 15.353 12.437 15.432 12.5776 15.5726C12.7183 15.7133 12.7973 15.9041 12.7973 16.103C12.7973 16.3019 12.7183 16.4926 12.5776 16.6333C12.437 16.7739 12.2462 16.853 12.0473 16.853H9.83301V21.121H15.5856C15.5887 21.1044 15.5918 21.0878 15.5951 21.0713C15.7533 20.2734 16.1447 19.5403 16.7196 18.9648C17.2945 18.3894 18.0272 17.9973 18.8249 17.8383C19.6227 17.6794 20.4497 17.7605 21.2013 18.0717C21.9529 18.3828 22.5953 18.9098 23.0473 19.5861C23.3589 20.0523 23.5703 20.5749 23.6716 21.121H34.6572V7.37402C34.6572 7.36257 34.6575 7.35115 34.658 7.33977ZM43.9102 21.871L43.9105 21.8518C43.9052 21.1666 43.6309 20.5105 43.1463 20.0254C42.6571 19.5357 41.9937 19.26 41.3015 19.259C40.7848 19.2584 40.2795 19.4111 39.8496 19.6977C39.4196 19.9844 39.0844 20.3921 38.8862 20.8693C38.7648 21.1616 38.6982 21.472 38.6879 21.7851C38.6914 21.8145 38.6932 21.8442 38.6932 21.874C38.6932 21.9034 38.6915 21.9327 38.6881 21.9616C38.6929 22.1011 38.709 22.2406 38.7364 22.3787C38.8368 22.8856 39.0853 23.3513 39.4505 23.7169C39.8157 24.0825 40.2811 24.3315 40.7878 24.4326C41.2946 24.5336 41.8199 24.482 42.2974 24.2844C42.7749 24.0868 43.183 23.752 43.4701 23.3224C43.7538 22.8981 43.9068 22.4 43.9105 21.8899L43.9102 21.871ZM17.0182 21.9638C17.0232 22.1024 17.0391 22.2409 17.0663 22.3782C17.1666 22.8851 17.4151 23.3509 17.7802 23.7166C18.1454 24.0823 18.6108 24.3314 19.1176 24.4325C19.6243 24.5337 20.1497 24.4822 20.6272 24.2846C21.1048 24.087 21.5129 23.7522 21.8001 23.3226C22.0873 22.893 22.2406 22.3878 22.2406 21.871C22.2401 21.1791 21.9653 20.5157 21.4764 20.0261C20.9875 19.5364 20.3245 19.2606 19.6326 19.259C19.1158 19.2582 18.6104 19.4108 18.1804 19.6973C17.7503 19.9838 17.4149 20.3915 17.2166 20.8687C17.0959 21.159 17.0293 21.4672 17.0183 21.7782C17.0221 21.8088 17.024 21.8398 17.024 21.871C17.024 21.9021 17.0221 21.9331 17.0182 21.9638ZM9.83301 11.942V7.65601C9.83301 7.45709 9.75399 7.26633 9.61334 7.12568C9.47269 6.98502 9.28192 6.90601 9.08301 6.90601C8.8841 6.90601 8.69333 6.98502 8.55268 7.12568C8.41203 7.26633 8.33301 7.45709 8.33301 7.65601V11.942H6.34961C6.1507 11.942 5.95993 12.021 5.81928 12.1617C5.67863 12.3023 5.59961 12.4931 5.59961 12.692C5.59961 12.8909 5.67863 13.0817 5.81928 13.2223C5.95993 13.363 6.1507 13.442 6.34961 13.442H19.6326C19.8315 13.442 20.0223 13.363 20.1629 13.2223C20.3036 13.0817 20.3826 12.8909 20.3826 12.692C20.3826 12.4931 20.3036 12.3023 20.1629 12.1617C20.0223 12.021 19.8315 11.942 19.6326 11.942H9.83301ZM5.937 9.48199H0.75C0.551088 9.48199 0.360322 9.40298 0.21967 9.26232C0.0790176 9.12167 0 8.93091 0 8.73199C0 8.53308 0.0790176 8.34232 0.21967 8.20166C0.360322 8.06101 0.551088 7.98199 0.75 7.98199H5.937C6.13591 7.98199 6.32668 8.06101 6.46733 8.20166C6.60798 8.34232 6.687 8.53308 6.687 8.73199C6.687 8.93091 6.60798 9.12167 6.46733 9.26232C6.32668 9.40298 6.13591 9.48199 5.937 9.48199Z" fill="url(#paint0_linear_70_1494)"/>
<defs>
<linearGradient id="paint0_linear_70_1494" x1="51.1365" y1="28.6813" x2="-24.6764" y2="8.19045" gradientUnits="userSpaceOnUse">
<stop stop-color="#0B3F37"/>
<stop offset="0.969562" stop-color="#CB8D62"/>
</linearGradient>
</defs>
</svg>
