<svg width="16" height="18" viewBox="0 0 16 18" fill="none" xmlns="http://www.w3.org/2000/svg">
<path d="M0.6875 3.9375H1.8125V15.4575C1.81398 15.9822 2.02307 16.4849 2.39407 16.8559C2.76507 17.2269 3.26783 17.436 3.7925 17.4375H12.23C12.7508 17.4301 13.2478 17.2184 13.6139 16.8481C13.9801 16.4777 14.1861 15.9783 14.1875 15.4575V3.9375H15.3125C15.4617 3.9375 15.6048 3.87824 15.7102 3.77275C15.8157 3.66726 15.875 3.52418 15.875 3.375C15.875 3.22582 15.8157 3.08274 15.7102 2.97725C15.6048 2.87176 15.4617 2.8125 15.3125 2.8125H11.375V1.6875C11.3751 1.39394 11.2604 1.11197 11.0555 0.901786C10.8506 0.691598 10.5716 0.569839 10.2781 0.5625H5.75C5.45163 0.5625 5.16548 0.681026 4.9545 0.892005C4.74353 1.10298 4.625 1.38913 4.625 1.6875V2.8125H0.6875C0.538316 2.8125 0.395242 2.87176 0.289752 2.97725C0.184263 3.08274 0.125 3.22582 0.125 3.375C0.125 3.52418 0.184263 3.66726 0.289752 3.77275C0.395242 3.87824 0.538316 3.9375 0.6875 3.9375ZM5.75 1.6875H10.25V2.8125H5.75V1.6875ZM4.625 3.9375H13.0625V15.4575C13.0625 15.6843 12.9724 15.9017 12.8121 16.0621C12.6517 16.2224 12.4343 16.3125 12.2075 16.3125H3.77C3.54716 16.3066 3.33543 16.214 3.17992 16.0543C3.02441 15.8945 2.93742 15.6804 2.9375 15.4575V3.9375H4.625Z" fill="#A1A1A1"/>
</svg>
