<svg width="19" height="18" viewBox="0 0 19 18" fill="none" xmlns="http://www.w3.org/2000/svg">
<path d="M13.7819 0.000976562H4.78212C2.3074 0.000976562 0.282227 2.02615 0.282227 4.50087V13.5011C0.282227 15.9751 2.3074 18.001 4.78212 18.001H13.7819C16.2566 18.001 18.2818 15.9751 18.2818 13.5011V4.50087C18.2818 2.02615 16.2566 0.000976562 13.7819 0.000976562ZM16.7817 13.5011C16.7817 15.1548 15.4365 16.5009 13.7819 16.5009H4.78212C3.12819 16.5009 1.78226 15.1548 1.78226 13.5011V4.50087C1.78226 2.84672 3.12819 1.50101 4.78212 1.50101H13.7819C15.4365 1.50101 16.7817 2.84672 16.7817 4.50087V13.5011Z" fill="white"/>
<path fill-rule="evenodd" clip-rule="evenodd" d="M1.28198 9.50098C0.881977 4.30098 2.44864 2.00098 3.28198 1.50098L7.78198 1.00098L14.782 1.50098L16.282 2.50098L17.282 4.50098V9.00098V12.501L16.782 15.501L15.782 16.501L13.282 17.501H10.782L5.78198 17.001C4.94865 17.001 3.18198 16.901 2.78198 16.501C2.74627 16.4653 2.71055 16.4321 2.67484 16.3989C2.21056 15.9678 1.74626 15.5367 1.28198 9.50098ZM9.28199 4.50098C6.79624 4.50098 4.7821 6.51534 4.7821 9.00087C4.7821 11.4855 6.79624 13.5012 9.28199 13.5012C11.767 13.5012 13.7819 11.4855 13.7819 9.00087C13.7819 6.51534 11.767 4.50098 9.28199 4.50098ZM9.28199 12.0012C7.62534 12.0012 6.28214 10.658 6.28214 9.00087C6.28214 7.34377 7.62534 6.00101 9.28199 6.00101C10.9386 6.00101 12.2818 7.34377 12.2818 9.00087C12.2818 10.658 10.9386 12.0012 9.28199 12.0012ZM15.2825 4.12546C15.2825 4.74677 14.7789 5.25043 14.1576 5.25043C13.5363 5.25043 13.0326 4.74677 13.0326 4.12546C13.0326 3.50416 13.5363 3.00049 14.1576 3.00049C14.7789 3.00049 15.2825 3.50416 15.2825 4.12546Z" fill="white"/>
</svg>
