<svg width="50" height="37" viewBox="0 0 50 37" fill="none" xmlns="http://www.w3.org/2000/svg">
<rect x="179.979" y="36.4414" width="179.979" height="35.569" transform="rotate(-180 179.979 36.4414)" fill="url(#paint0_linear_9917_1934)"/>
<path d="M28.2422 11.2552H16.4453C15.4758 11.2552 14.6875 12.0439 14.6875 13.013C14.6875 13.9826 15.4758 14.7708 16.4453 14.7708H28.2422C29.2113 14.7708 30 13.9826 30 13.013C30 12.0439 29.2113 11.2552 28.2422 11.2552Z" fill="white"/>
<path d="M28.2422 17.1146H16.4453C15.4758 17.1146 14.6875 17.9033 14.6875 18.8724C14.6875 19.8419 15.4758 20.6302 16.4453 20.6302H28.2422C29.2113 20.6302 30 19.8419 30 18.8724C30 17.9033 29.2113 17.1146 28.2422 17.1146Z" fill="white"/>
<path d="M28.2422 22.974H16.4453C15.4758 22.974 14.6875 23.7626 14.6875 24.7318C14.6875 25.7013 15.4758 26.4896 16.4453 26.4896H28.2422C29.2113 26.4896 30 25.7013 30 24.7318C30 23.7626 29.2113 22.974 28.2422 22.974Z" fill="white"/>
<path d="M11.7578 11.2552C10.7883 11.2552 10 12.0439 10 13.013C10 13.9826 10.7883 14.7708 11.7578 14.7708C12.727 14.7708 13.5156 13.9826 13.5156 13.013C13.5156 12.0439 12.727 11.2552 11.7578 11.2552Z" fill="white"/>
<path d="M11.7578 17.1146C10.7883 17.1146 10 17.9033 10 18.8724C10 19.8419 10.7883 20.6302 11.7578 20.6302C12.727 20.6302 13.5156 19.8419 13.5156 18.8724C13.5156 17.9033 12.727 17.1146 11.7578 17.1146Z" fill="white"/>
<path d="M11.7578 22.974C10.7883 22.974 10 23.7626 10 24.7318C10 25.7013 10.7883 26.4896 11.7578 26.4896C12.727 26.4896 13.5156 25.7013 13.5156 24.7318C13.5156 23.7626 12.727 22.974 11.7578 22.974Z" fill="white"/>
<defs>
<linearGradient id="paint0_linear_9917_1934" x1="220.062" y1="23.6366" x2="363.937" y2="51.3464" gradientUnits="userSpaceOnUse">
<stop stop-color="#5E3928"/>
<stop offset="0.911458" stop-color="#E4A16F"/>
</linearGradient>
</defs>
</svg>
