<svg width="165" height="156" viewBox="0 0 165 156" fill="none" xmlns="http://www.w3.org/2000/svg">
<path d="M159.474 9.89799C157.499 7.42255 155.027 5.43163 152.232 4.06664C149.437 2.70165 146.389 1.99607 143.304 2H29.7843L29.4894 -0.574003C28.8859 -5.92427 26.4238 -10.8573 22.5698 -14.4378C18.7159 -18.0184 13.738 -19.9975 8.58 -20L7.02128 -20C5.15912 -20 3.37323 -19.2274 2.05648 -17.8521C0.73974 -16.4769 0 -14.6116 0 -12.6667C0 -10.7217 0.73974 -8.85649 2.05648 -7.48122C3.37323 -6.10595 5.15912 -5.33334 7.02128 -5.33334H8.58C10.2997 -5.3331 11.9596 -4.67366 13.2447 -3.48009C14.5299 -2.28652 15.3509 -0.641846 15.5521 1.142L25.2134 86.942C26.2164 95.8651 30.3212 104.093 36.7487 110.064C43.1762 116.035 51.479 119.333 60.0811 119.333H133.404C135.266 119.333 137.052 118.561 138.369 117.185C139.686 115.81 140.426 113.945 140.426 112C140.426 110.055 139.686 108.19 138.369 106.815C137.052 105.439 135.266 104.667 133.404 104.667H60.0811C55.7353 104.654 51.4997 103.238 47.9549 100.612C44.4101 97.986 41.7296 94.2793 40.2811 90H123.975C132.206 90.0005 140.175 86.9803 146.491 81.4672C152.806 75.954 157.066 68.2984 158.526 59.838L164.038 27.9087C164.588 24.7407 164.465 21.4851 163.676 18.3727C162.887 15.2602 161.453 12.367 159.474 9.89799ZM150.255 25.3053L144.737 57.2346C143.86 62.3167 141.299 66.9146 137.504 70.2234C133.708 73.5323 128.919 75.3411 123.975 75.3333H38.0483L31.4413 16.6667H143.304C144.336 16.6602 145.356 16.8912 146.292 17.3432C147.228 17.7952 148.058 18.4571 148.721 19.2818C149.385 20.1065 149.866 21.0738 150.132 22.1149C150.397 23.1559 150.439 24.2453 150.255 25.3053Z" fill="#E6E8E7"/>
<path d="M49.148 156C56.9035 156 63.1905 149.433 63.1905 141.333C63.1905 133.233 56.9035 126.667 49.148 126.667C41.3925 126.667 35.1055 133.233 35.1055 141.333C35.1055 149.433 41.3925 156 49.148 156Z" fill="#E6E8E7"/>
<path d="M119.361 156C127.116 156 133.403 149.433 133.403 141.333C133.403 133.233 127.116 126.667 119.361 126.667C111.605 126.667 105.318 133.233 105.318 141.333C105.318 149.433 111.605 156 119.361 156Z" fill="#E6E8E7"/>
</svg>
