<svg width="11" height="18" viewBox="0 0 11 18" fill="none" xmlns="http://www.w3.org/2000/svg">
<path d="M3.4398 9.922C3.3738 9.922 1.9218 9.922 1.2618 9.922C0.909805 9.922 0.799805 9.79 0.799805 9.46C0.799805 8.58 0.799805 7.678 0.799805 6.798C0.799805 6.446 0.931805 6.336 1.2618 6.336H3.4398C3.4398 6.27 3.4398 4.994 3.4398 4.4C3.4398 3.52 3.5938 2.684 4.0338 1.914C4.4958 1.122 5.1558 0.594 5.9918 0.286C6.5418 0.0879998 7.0918 0 7.6858 0H9.84179C10.1498 0 10.2818 0.132 10.2818 0.44V2.948C10.2818 3.256 10.1498 3.388 9.84179 3.388C9.24779 3.388 8.6538 3.388 8.0598 3.41C7.4658 3.41 7.1578 3.696 7.1578 4.312C7.1358 4.972 7.1578 5.61 7.1578 6.292H9.70979C10.0618 6.292 10.1938 6.424 10.1938 6.776V9.438C10.1938 9.79 10.0838 9.9 9.70979 9.9C8.9178 9.9 7.2238 9.9 7.1578 9.9V17.072C7.1578 17.446 7.0478 17.578 6.6518 17.578C5.7278 17.578 4.8258 17.578 3.9018 17.578C3.5718 17.578 3.4398 17.446 3.4398 17.116C3.4398 14.806 3.4398 9.988 3.4398 9.922Z" fill="white"/>
</svg>
