<svg width="30" height="29" viewBox="0 0 30 29" fill="none" xmlns="http://www.w3.org/2000/svg">
<path d="M21.8752 0.673492C20.4676 0.696445 19.0908 1.10838 17.8836 1.8677C16.6765 2.62702 15.6819 3.70683 15.0002 4.99809C14.3185 3.70683 13.3239 2.62702 12.1167 1.8677C10.9096 1.10838 9.53275 0.696445 8.12519 0.673492C5.88137 0.775698 3.76732 1.80477 2.24492 3.53589C0.722516 5.26701 -0.0844962 7.55946 0.000192003 9.9124C0.000192003 15.8712 5.98269 22.379 11.0002 26.7914C12.1205 27.7784 13.5369 28.3195 15.0002 28.3195C16.4635 28.3195 17.8799 27.7784 19.0002 26.7914C24.0177 22.379 30.0002 15.8712 30.0002 9.9124C30.0849 7.55946 29.2779 5.26701 27.7555 3.53589C26.2331 1.80477 24.119 0.775698 21.8752 0.673492ZM17.3939 24.7864C16.7239 25.3779 15.8761 25.7023 15.0002 25.7023C14.1242 25.7023 13.2765 25.3779 12.6064 24.7864C6.18394 19.1369 2.50019 13.7167 2.50019 9.9124C2.41474 8.25427 2.95815 6.62797 4.0119 5.38822C5.06564 4.14846 6.54423 3.39583 8.12519 3.29446C9.70615 3.39583 11.1847 4.14846 12.2385 5.38822C13.2922 6.62797 13.8356 8.25427 13.7502 9.9124C13.7502 10.26 13.8819 10.5933 14.1163 10.8391C14.3507 11.0848 14.6687 11.2229 15.0002 11.2229C15.3317 11.2229 15.6497 11.0848 15.8841 10.8391C16.1185 10.5933 16.2502 10.26 16.2502 9.9124C16.1647 8.25427 16.7081 6.62797 17.7619 5.38822C18.8156 4.14846 20.2942 3.39583 21.8752 3.29446C23.4561 3.39583 24.9347 4.14846 25.9885 5.38822C27.0422 6.62797 27.5856 8.25427 27.5002 9.9124C27.5002 13.7167 23.8164 19.1369 17.3939 24.7811V24.7864Z" fill="#0B3F37"/>
</svg>
