<svg width="30" height="27" viewBox="0 0 30 27" fill="none" xmlns="http://www.w3.org/2000/svg">
<path fill-rule="evenodd" clip-rule="evenodd" d="M17.8836 1.53533C19.0908 0.811057 20.4676 0.418134 21.8752 0.39624C24.119 0.493729 26.2331 1.47531 27.7555 3.12653C29.2779 4.77775 30.0849 6.9644 30.0002 9.20874C30.0002 14.8925 24.0177 21.1 19.0002 25.3087C17.8799 26.2502 16.4635 26.7663 15.0002 26.7663C13.5369 26.7663 12.1205 26.2502 11.0002 25.3087C5.98269 21.1 0.000192003 14.8925 0.000192003 9.20874C-0.0844962 6.9644 0.722516 4.77775 2.24492 3.12653C3.76732 1.47531 5.88137 0.493729 8.12519 0.39624C9.53275 0.418134 10.9096 0.811057 12.1167 1.53533C13.3239 2.2596 14.3185 3.28958 15.0002 4.52124C15.6819 3.28958 16.6765 2.2596 17.8836 1.53533Z" fill="url(#paint0_linear_59_16043)"/>
<defs>
<linearGradient id="paint0_linear_59_16043" x1="7.57322" y1="-6.39264" x2="29.8512" y2="-5.41773" gradientUnits="userSpaceOnUse">
<stop stop-color="#5E3928"/>
<stop offset="0.911458" stop-color="#E4A16F"/>
</linearGradient>
</defs>
</svg>
