<svg width="15" height="15" viewBox="0 0 15 15" fill="none" xmlns="http://www.w3.org/2000/svg">
<path d="M6.03703 12.0704C7.37775 12.0704 8.68012 11.6231 9.73785 10.7992L13.7283 14.7897C14.0264 15.0776 14.5014 15.0693 14.7893 14.7712C15.0702 14.4804 15.0702 14.0194 14.7893 13.7287L10.7989 9.7382C12.8432 7.10662 12.3671 3.31605 9.73555 1.27174C7.10396 -0.772579 3.31343 -0.296529 1.26911 2.33506C-0.775204 4.96665 -0.299154 8.75721 2.33243 10.8015C3.39189 11.6246 4.69543 12.071 6.03703 12.0704ZM2.83072 2.83103C4.60153 1.06018 7.47259 1.06015 9.24344 2.83097C11.0143 4.60178 11.0143 7.47284 9.24351 9.24369C7.47269 11.0145 4.60163 11.0146 2.83078 9.24376C2.83075 9.24372 2.83075 9.24372 2.83072 9.24369C1.0599 7.48578 1.04947 4.62519 2.80738 2.85437C2.81515 2.84657 2.82292 2.8388 2.83072 2.83103Z" fill="#031412"/>
</svg>
